<svg width="81" height="74" viewBox="0 0 81 74" fill="none" xmlns="http://www.w3.org/2000/svg">
<path d="M20.1742 0.0391684L27.9242 5.78917C26.0909 8.1225 24.0909 11.4558 21.9242 15.7892C19.9242 20.1225 18.1742 24.9558 16.6742 30.2892C15.3409 35.4558 14.9242 40.5392 15.4242 45.5392C17.4242 44.7058 19.4242 44.2892 21.4242 44.2892C25.0909 44.2892 28.1742 45.5392 30.6742 48.0392C33.3409 50.3725 34.6742 53.6225 34.6742 57.7892C34.6742 62.6225 33.2575 66.5392 30.4242 69.5392C27.5909 72.3725 24.0075 73.7892 19.6742 73.7892C13.1742 73.7892 8.25753 71.5392 4.92419 67.0392C1.75753 62.3725 0.174194 56.6225 0.174194 49.7892C0.174194 45.2892 0.924194 40.0392 2.42419 34.0392C4.09086 28.0392 6.42419 22.0392 9.42419 16.0392C12.4242 10.0392 16.0075 4.70583 20.1742 0.0391684ZM66.1742 0.0391684L73.9242 5.78917C72.0909 8.1225 70.0909 11.4558 67.9242 15.7892C65.9242 20.1225 64.1742 24.9558 62.6742 30.2892C61.3409 35.4558 60.9242 40.5392 61.4242 45.5392C63.4242 44.7058 65.4242 44.2892 67.4242 44.2892C71.0909 44.2892 74.1742 45.5392 76.6742 48.0392C79.3409 50.3725 80.6742 53.6225 80.6742 57.7892C80.6742 62.6225 79.2575 66.5392 76.4242 69.5392C73.5909 72.3725 70.0075 73.7892 65.6742 73.7892C59.1742 73.7892 54.2575 71.5392 50.9242 67.0392C47.7575 62.3725 46.1742 56.6225 46.1742 49.7892C46.1742 45.2892 46.9242 40.0392 48.4242 34.0392C50.0909 28.0392 52.4242 22.0392 55.4242 16.0392C58.4242 10.0392 62.0075 4.70583 66.1742 0.0391684Z" fill="url(#paint0_linear_25377_28)"/>
<defs>
<linearGradient id="paint0_linear_25377_28" x1="40.8516" y1="-11.8696" x2="-155.868" y2="393.579" gradientUnits="userSpaceOnUse">
<stop stop-color="#FCFCFC" stop-opacity="0"/>
<stop offset="1" stop-color="white" stop-opacity="0.5"/>
</linearGradient>
</defs>
</svg>
