<svg xmlns="http://www.w3.org/2000/svg" style="display:none;">
<symbol id="facebook" viewBox="0 0 34 34">
    <path d="M18.9791 29.7458V18.1347H22.8962L23.4784 13.5887H18.9791V10.693C18.9791 9.38116 19.3446 8.483 21.2273 8.483H23.613V4.42991C22.4522 4.30552 21.2855 4.24545 20.1181 4.25C16.6557 4.25 14.2786 6.36366 14.2786 10.2439V13.5802H10.387V18.1262H14.2871V29.7458H18.9791Z" />
</symbol>

<symbol id="inst" viewBox="0 0 36 36">
    <path d="M17.9985 11.0654C16.159 11.0654 14.3948 11.7962 13.094 13.0969C11.7933 14.3977 11.0625 16.1619 11.0625 18.0014C11.0625 19.841 11.7933 21.6052 13.094 22.9059C14.3948 24.2067 16.159 24.9374 17.9985 24.9374C19.838 24.9374 21.6022 24.2067 22.903 22.9059C24.2037 21.6052 24.9345 19.841 24.9345 18.0014C24.9345 16.1619 24.2037 14.3977 22.903 13.0969C21.6022 11.7962 19.838 11.0654 17.9985 11.0654ZM17.9985 22.5059C16.8034 22.5059 15.6573 22.0312 14.8123 21.1862C13.9672 20.3411 13.4925 19.195 13.4925 17.9999C13.4925 16.8049 13.9672 15.6587 14.8123 14.8137C15.6573 13.9687 16.8034 13.4939 17.9985 13.4939C19.1936 13.4939 20.3397 13.9687 21.1847 14.8137C22.0298 15.6587 22.5045 16.8049 22.5045 17.9999C22.5045 19.195 22.0298 20.3411 21.1847 21.1862C20.3397 22.0312 19.1936 22.5059 17.9985 22.5059Z" />
<path d="M25.209 12.4275C26.102 12.4275 26.826 11.7035 26.826 10.8105C26.826 9.91744 26.102 9.19348 25.209 9.19348C24.316 9.19348 23.592 9.91744 23.592 10.8105C23.592 11.7035 24.316 12.4275 25.209 12.4275Z" />
<path d="M30.7995 9.16645C30.4523 8.26972 29.9216 7.45537 29.2415 6.77553C28.5614 6.0957 27.7469 5.56535 26.85 5.21845C25.8005 4.82448 24.6918 4.61146 23.571 4.58845C22.1265 4.52545 21.669 4.50745 18.006 4.50745C14.343 4.50745 13.8735 4.50745 12.441 4.58845C11.3211 4.61028 10.2131 4.82335 9.16501 5.21845C8.26791 5.56495 7.45315 6.09515 6.77301 6.77504C6.09286 7.45493 5.56235 8.26948 5.21551 9.16645C4.82146 10.2159 4.60893 11.3247 4.58701 12.4454C4.52251 13.8884 4.50301 14.3459 4.50301 18.0104C4.50301 21.6734 4.50301 22.1399 4.58701 23.5754C4.60951 24.6974 4.82101 25.8044 5.21551 26.8559C5.56332 27.7526 6.09435 28.5668 6.77466 29.2466C7.45497 29.9264 8.2696 30.4568 9.16651 30.8039C10.2127 31.2137 11.3211 31.442 12.444 31.4789C13.8885 31.5419 14.346 31.5614 18.009 31.5614C21.672 31.5614 22.1415 31.5614 23.574 31.4789C24.6947 31.4562 25.8034 31.2437 26.853 30.8505C27.7496 30.5027 28.5639 29.9719 29.244 29.2919C29.924 28.6119 30.4548 27.7976 30.8025 26.9009C31.197 25.851 31.4085 24.7439 31.431 23.622C31.4955 22.1789 31.515 21.7214 31.515 18.0569C31.515 14.3924 31.515 13.9274 31.431 12.4919C31.4135 11.3554 31.1999 10.2303 30.7995 9.16645ZM28.9725 23.4644C28.9628 24.3289 28.805 25.1853 28.506 25.9964C28.2807 26.5798 27.9359 27.1094 27.4936 27.5515C27.0513 27.9935 26.5214 28.338 25.938 28.5629C25.1358 28.8606 24.2885 29.0184 23.433 29.0294C22.008 29.0954 21.606 29.1119 17.952 29.1119C14.295 29.1119 13.9215 29.1119 12.4695 29.0294C11.6144 29.019 10.7675 28.8612 9.96601 28.5629C9.38054 28.3394 8.84851 27.9955 8.40434 27.5534C7.96017 27.1113 7.61376 26.5809 7.38751 25.9964C7.09268 25.194 6.93497 24.3477 6.92101 23.4929C6.85651 22.0679 6.84151 21.6659 6.84151 18.0119C6.84151 14.3564 6.84151 13.9829 6.92101 12.5294C6.9307 11.6655 7.08849 10.8096 7.38751 9.99895C7.84501 8.81545 8.78251 7.88395 9.96601 7.43095C10.7679 7.13416 11.6145 6.97639 12.4695 6.96445C13.896 6.89995 14.2965 6.88195 17.952 6.88195C21.6075 6.88195 21.9825 6.88195 23.433 6.96445C24.2886 6.97474 25.136 7.13255 25.938 7.43095C26.5214 7.65636 27.0512 8.00125 27.4935 8.44349C27.9357 8.88573 28.2806 9.41555 28.506 9.99895C28.8008 10.8014 28.9585 11.6477 28.9725 12.5024C29.037 13.9289 29.0535 14.3294 29.0535 17.9849C29.0535 21.6389 29.0535 22.0319 28.989 23.466H28.9725V23.4644Z" />

</symbol>

<symbol id="twit" viewBox="0 0 36 36">
<path d="M29.4495 11.9956C29.469 12.2581 29.469 12.5191 29.469 12.7801C29.469 20.7676 23.3895 29.9716 12.279 29.9716C8.856 29.9716 5.676 28.9801 3 27.2581C3.486 27.3136 3.954 27.3331 4.4595 27.3331C7.17899 27.3396 9.82147 26.4303 11.961 24.7516C10.7001 24.7287 9.47786 24.3128 8.46486 23.5617C7.45185 22.8106 6.69868 21.7619 6.3105 20.5621C6.684 20.6176 7.059 20.6551 7.452 20.6551C7.9935 20.6551 8.538 20.5801 9.0435 20.4496C7.67514 20.1733 6.44471 19.4316 5.56143 18.3506C4.67815 17.2696 4.19654 15.916 4.1985 14.5201V14.4451C5.004 14.8936 5.9385 15.1741 6.9285 15.2116C6.09913 14.6604 5.41908 13.9126 4.94901 13.0348C4.47894 12.1569 4.23347 11.1763 4.2345 10.1806C4.2345 9.05857 4.533 8.02957 5.0565 7.13257C6.57471 9.0001 8.46825 10.5279 10.6145 11.6171C12.7608 12.7062 15.1118 13.3324 17.5155 13.4551C17.4225 13.0051 17.3655 12.5386 17.3655 12.0706C17.3651 11.277 17.5211 10.4912 17.8246 9.75793C18.1281 9.0247 18.5732 8.35848 19.1343 7.79735C19.6954 7.23622 20.3616 6.79118 21.0949 6.48768C21.8281 6.18418 22.6139 6.02817 23.4075 6.02857C25.1475 6.02857 26.718 6.75756 27.822 7.93657C29.1747 7.67499 30.4718 7.1812 31.656 6.47706C31.2051 7.87329 30.2606 9.05722 28.9995 9.80707C30.1992 9.67023 31.3717 9.35474 32.478 8.87107C31.6517 10.0757 30.6278 11.1321 29.4495 11.9956Z" />
</symbol>

<symbol id='dropdown' viewBox="0 0 18 18">
<g id="chevron-down">
<path id="Vector" d="M4.5 6.75L9 11.25L13.5 6.75" stroke="white"  stroke-width="1.5" stroke-linecap="round" stroke-linejoin="round"/>
</g>
</symbol>

<symbol id='like' viewBox="0 0 28 28">
    <path d="M19.8333 5.25C17.3833 5.25 15.225 6.475 14 8.4C12.775 6.475 10.6167 5.25 8.16667 5.25C4.31667 5.25 1.16667 8.4 1.16667 12.25C1.16667 19.1917 14 26.25 14 26.25C14 26.25 26.8333 19.25 26.8333 12.25C26.8333 8.4 23.6833 5.25 19.8333 5.25Z" />
</symbol>

<symbol id='save' viewBox="0 0 30 30">
<path d="M17.5 16.25H16.25V15C16.25 14.6685 16.1183 14.3505 15.8839 14.1161C15.6495 13.8817 15.3315 13.75 15 13.75C14.6685 13.75 14.3505 13.8817 14.1161 14.1161C13.8817 14.3505 13.75 14.6685 13.75 15V16.25H12.5C12.1685 16.25 11.8505 16.3817 11.6161 16.6161C11.3817 16.8505 11.25 17.1685 11.25 17.5C11.25 17.8315 11.3817 18.1495 11.6161 18.3839C11.8505 18.6183 12.1685 18.75 12.5 18.75H13.75V20C13.75 20.3315 13.8817 20.6495 14.1161 20.8839C14.3505 21.1183 14.6685 21.25 15 21.25C15.3315 21.25 15.6495 21.1183 15.8839 20.8839C16.1183 20.6495 16.25 20.3315 16.25 20V18.75H17.5C17.8315 18.75 18.1495 18.6183 18.3839 18.3839C18.6183 18.1495 18.75 17.8315 18.75 17.5C18.75 17.1685 18.6183 16.8505 18.3839 16.6161C18.1495 16.3817 17.8315 16.25 17.5 16.25Z" />
<path d="M24.375 8.81249H15.625L12.3375 4.83749C12.2212 4.6941 12.0745 4.57825 11.9081 4.49829C11.7417 4.41832 11.5596 4.37621 11.375 4.37499H5.625C4.80826 4.36496 4.02083 4.67898 3.43512 5.24829C2.84942 5.8176 2.51317 6.59579 2.5 7.41249V22.5875C2.51317 23.4042 2.84942 24.1824 3.43512 24.7517C4.02083 25.321 4.80826 25.635 5.625 25.625H24.375C25.1917 25.635 25.9792 25.321 26.5649 24.7517C27.1506 24.1824 27.4868 23.4042 27.5 22.5875V11.85C27.4868 11.0333 27.1506 10.2551 26.5649 9.68579C25.9792 9.11648 25.1917 8.80246 24.375 8.81249ZM25 22.5625C24.9953 22.6392 24.9753 22.7142 24.9411 22.783C24.9069 22.8518 24.8593 22.9131 24.801 22.9632C24.7427 23.0133 24.675 23.0512 24.6019 23.0747C24.5287 23.0982 24.4515 23.1068 24.375 23.1H5.625C5.54846 23.1068 5.47132 23.0982 5.39815 23.0747C5.32498 23.0512 5.25726 23.0133 5.199 22.9632C5.14073 22.9131 5.0931 22.8518 5.05892 22.783C5.02474 22.7142 5.00471 22.6392 5 22.5625V7.41249C5.00471 7.33578 5.02474 7.2608 5.05892 7.19197C5.0931 7.12315 5.14073 7.06187 5.199 7.01176C5.25726 6.96165 5.32498 6.92373 5.39815 6.90024C5.47132 6.87675 5.54846 6.86816 5.625 6.87499H10.7875L14.0375 10.85C14.1538 10.9934 14.3005 11.1092 14.4669 11.1892C14.6333 11.2692 14.8154 11.3113 15 11.3125H24.375C24.4515 11.3057 24.5287 11.3142 24.6019 11.3377C24.675 11.3612 24.7427 11.3992 24.801 11.4493C24.8593 11.4994 24.9069 11.5606 24.9411 11.6295C24.9753 11.6983 24.9953 11.7733 25 11.85V22.5625Z"/>
</symbol>

<symbol id='closebtn' viewBox="0 0 18 18">
<path d="M15 4.10786L13.8921 3L9.5 7.39214L5.10786 3L4 4.10786L8.39214 8.5L4 12.8921L5.10786 14L9.5 9.60786L13.8921 14L15 12.8921L10.6079 8.5L15 4.10786Z"/>
  
</symbol>

<symbol id='inp-icon1' viewBox="0 0 18 18">
<g clip-path="url(#clip0_60_11800)">
<path d="M9 9C10.6575 9 12 7.6575 12 6C12 4.3425 10.6575 3 9 3C7.3425 3 6 4.3425 6 6C6 7.6575 7.3425 9 9 9ZM9 10.5C6.9975 10.5 3 11.505 3 13.5V14.25C3 14.6625 3.3375 15 3.75 15H14.25C14.6625 15 15 14.6625 15 14.25V13.5C15 11.505 11.0025 10.5 9 10.5Z"/>
</g>
<defs>
<clipPath id="clip0_60_11800">
<rect width="18" height="18" fill="white"/>
</clipPath>
</defs>
</symbol>

<symbol id='inp-icon2' viewBox="0 0 18 18">
<g clip-path="url(#clip0_60_11806)">
<path d="M13.996 11.1226L12.1579 10.9127C11.7164 10.8621 11.2822 11.0141 10.9711 11.3252L9.63948 12.6568C7.59147 11.6147 5.91254 9.94301 4.87044 7.88775L6.20925 6.54894C6.52043 6.23775 6.6724 5.80355 6.62174 5.3621L6.41188 3.53842C6.32504 2.8075 5.70991 2.2575 4.97176 2.2575H3.71979C2.90203 2.2575 2.22178 2.93776 2.27243 3.75552C2.65598 9.93577 7.59871 14.8713 13.7717 15.2548C14.5894 15.3055 15.2697 14.6252 15.2697 13.8075V12.5555C15.2769 11.8246 14.7269 11.2095 13.996 11.1226Z"/>
</g>
<defs>
<clipPath id="clip0_60_11806">
<rect width="18" height="18" fill="white"/>
</clipPath>
</defs>
</symbol>

<symbol id='inp-icon3' viewBox="0 0 18 18">
<g clip-path="url(#clip0_60_11812)">
<path d="M15 3H3C2.175 3 1.5075 3.675 1.5075 4.5L1.5 13.5C1.5 14.325 2.175 15 3 15H15C15.825 15 16.5 14.325 16.5 13.5V4.5C16.5 3.675 15.825 3 15 3ZM14.7 6.1875L9.3975 9.5025C9.1575 9.6525 8.8425 9.6525 8.6025 9.5025L3.3 6.1875C3.1125 6.0675 3 5.865 3 5.6475C3 5.145 3.5475 4.845 3.975 5.1075L9 8.25L14.025 5.1075C14.4525 4.845 15 5.145 15 5.6475C15 5.865 14.8875 6.0675 14.7 6.1875Z" />
</g>
<defs>
<clipPath id="clip0_60_11812">
<rect width="18" height="18" fill="white"/>
</clipPath>
</defs>
</symbol>

<symbol id="inp-icon4" viewBox="0 0 24 24">
<g fill="none"><path d="M0 0h24v24H0V0z"/><path d="M0 0h24v24H0V0z" opacity=".87"/></g><path d="M18 8h-1V6c0-2.76-2.24-5-5-5S7 3.24 7 6v2H6c-1.1 0-2 .9-2 2v10c0 1.1.9 2 2 2h12c1.1 0 2-.9 2-2V10c0-1.1-.9-2-2-2zM9 6c0-1.66 1.34-3 3-3s3 1.34 3 3v2H9V6zm9 14H6V10h12v10zm-6-3c1.1 0 2-.9 2-2s-.9-2-2-2-2 .9-2 2 .9 2 2 2z" />
</symbol>

<symbol id="visibility-on-icon" viewBox="0 0 24 24">
    <path d="M0 0h24v24H0V0z" fill="none"/><path d="M12 6c3.79 0 7.17 2.13 8.82 5.5C19.17 14.87 15.79 17 12 17s-7.17-2.13-8.82-5.5C4.83 8.13 8.21 6 12 6m0-2C7 4 2.73 7.11 1 11.5 2.73 15.89 7 19 12 19s9.27-3.11 11-7.5C21.27 7.11 17 4 12 4zm0 5c1.38 0 2.5 1.12 2.5 2.5S13.38 14 12 14s-2.5-1.12-2.5-2.5S10.62 9 12 9m0-2c-2.48 0-4.5 2.02-4.5 4.5S9.52 16 12 16s4.5-2.02 4.5-4.5S14.48 7 12 7z"/>
</symbol>

<symbol id="visibility-off-icon" viewBox="0 0 24 24">
    <path d="M0 0h24v24H0V0zm0 0h24v24H0V0zm0 0h24v24H0V0zm0 0h24v24H0V0z" fill="none"/><path d="M12 6c3.79 0 7.17 2.13 8.82 5.5-.59 1.22-1.42 2.27-2.41 3.12l1.41 1.41c1.39-1.23 2.49-2.77 3.18-4.53C21.27 7.11 17 4 12 4c-1.27 0-2.49.2-3.64.57l1.65 1.65C10.66 6.09 11.32 6 12 6zm-1.07 1.14L13 9.21c.57.25 1.03.71 1.28 1.28l2.07 2.07c.08-.34.14-.7.14-1.07C16.5 9.01 14.48 7 12 7c-.37 0-.72.05-1.07.14zM2.01 3.87l2.68 2.68C3.06 7.83 1.77 9.53 1 11.5 2.73 15.89 7 19 12 19c1.52 0 2.98-.29 4.32-.82l3.42 3.42 1.41-1.41L3.42 2.45 2.01 3.87zm7.5 7.5l2.61 2.61c-.04.01-.08.02-.12.02-1.38 0-2.5-1.12-2.5-2.5 0-.05.01-.08.01-.13zm-3.4-3.4l1.75 1.75c-.23.55-.36 1.15-.36 1.78 0 2.48 2.02 4.5 4.5 4.5.63 0 1.23-.13 1.77-.36l.98.98c-.88.24-1.8.38-2.75.38-3.79 0-7.17-2.13-8.82-5.5.7-1.43 1.72-2.61 2.93-3.53z"/>
</symbol>
</svg>